HIERARCHY
ROOT root
{
	OFFSET	0	13.1	24.9
	CHANNELS 6  Xposition Yposition Zposition Xrotation Yrotation Zrotation
	JOINT spine_1
	{
		OFFSET	0	9.99999	0
		CHANNELS 3  Xrotation Yrotation Zrotation
		JOINT spine_2
		{
			OFFSET	0	112	-10
			CHANNELS 3  Xrotation Yrotation Zrotation
			JOINT spine_3
			{
				OFFSET	0	206.5	19.3
				CHANNELS 3  Xrotation Yrotation Zrotation
				JOINT spine_4
				{
					OFFSET	0	110.4	14.6
					CHANNELS 3  Xrotation Yrotation Zrotation
					JOINT neck_1
					{
						OFFSET	0	71.8	-50.3
						CHANNELS 3  Xrotation Yrotation Zrotation
						JOINT neck_2
						{
							OFFSET	0	86.2	-25.8
							CHANNELS 3  Xrotation Yrotation Zrotation
							JOINT head_ee
							{
								OFFSET	0	179.8	-8.7
								CHANNELS 3  Xrotation Yrotation Zrotation
								End Site
								{
									OFFSET	1	0	0
								}
							}
						}
					}
					JOINT left_clavicle
					{
						OFFSET	-43.2	22.4	-70.8
						CHANNELS 3  Xrotation Yrotation Zrotation
						JOINT left_shoulder
						{
							OFFSET	-93.9	-5.79999	48.7
							CHANNELS 3  Xrotation Yrotation Zrotation
							JOINT left_elbow
							{
								OFFSET	-291.4	-30.8	15.2
								CHANNELS 3  Xrotation Yrotation Zrotation
								JOINT left_lowarm_twist
								{
									OFFSET	-110.7	-3.89999	13.6
									CHANNELS 3  Xrotation Yrotation Zrotation
									JOINT left_hand
									{
										OFFSET	-110.7	-3.89999	13.6
										CHANNELS 3  Xrotation Yrotation Zrotation
										JOINT left_ee
										{
											OFFSET	-80.8	-5.10001	12.1
											CHANNELS 3  Xrotation Yrotation Zrotation
											End Site
											{
												OFFSET	1	0	0
											}
										}
									}
								}
							}
						}
					}
					JOINT right_clavicle
					{
						OFFSET	43.2	22.4	-70.8
						CHANNELS 3  Xrotation Yrotation Zrotation
						JOINT right_shoulder
						{
							OFFSET	93.9	-5.79999	48.7
							CHANNELS 3  Xrotation Yrotation Zrotation
							JOINT right_elbow
							{
								OFFSET	291.4	-30.8	15.2
								CHANNELS 3  Xrotation Yrotation Zrotation
								JOINT right_lowarm_twist
								{
									OFFSET	110.7	-3.89999	13.6
									CHANNELS 3  Xrotation Yrotation Zrotation
									JOINT right_hand
									{
										OFFSET	110.7	-3.89999	13.6
										CHANNELS 3  Xrotation Yrotation Zrotation
										JOINT right_ee
										{
											OFFSET	80.8	-5.10001	12.1
											CHANNELS 3  Xrotation Yrotation Zrotation
											End Site
											{
												OFFSET	1	0	0
											}
										}
									}
								}
							}
						}
					}
				}
			}
		}
	}
	JOINT left_hip
	{
		OFFSET	-82.8	-127.5	0.300001
		CHANNELS 3  Xrotation Yrotation Zrotation
		JOINT left_knee
		{
			OFFSET	-28.2	-396.7	2.2
			CHANNELS 3  Xrotation Yrotation Zrotation
			JOINT left_ankle
			{
				OFFSET	-11.7	-411.3	35.4
				CHANNELS 3  Xrotation Yrotation Zrotation
				JOINT left_toes
				{
					OFFSET	0	-60	-88.6
					CHANNELS 3  Xrotation Yrotation Zrotation
					JOINT left_foot_ee
					{
						OFFSET	-22.5	-16.5	-42.2
						CHANNELS 3  Xrotation Yrotation Zrotation
						End Site
						{
							OFFSET	1	0	0
						}
					}
				}
			}
		}
	}
	JOINT right_hip
	{
		OFFSET	82.8	-127.5	0.300001
		CHANNELS 3  Xrotation Yrotation Zrotation
		JOINT right_knee
		{
			OFFSET	28.2	-396.7	2.2
			CHANNELS 3  Xrotation Yrotation Zrotation
			JOINT right_ankle
			{
				OFFSET	11.7	-411.3	35.4
				CHANNELS 3  Xrotation Yrotation Zrotation
				JOINT right_toes
				{
					OFFSET	0	-60	-88.6
					CHANNELS 3  Xrotation Yrotation Zrotation
					JOINT right_foot_ee
					{
						OFFSET	22.5	-16.5	-42.2
						CHANNELS 3  Xrotation Yrotation Zrotation
						End Site
						{
							OFFSET	1	0	0
						}
					}
				}
			}
		}
	}
}
MOTION
Frames: 13
Frame Time: 0.02
1372.05 701.618 -1475.22 -13.2802000652 29.6418560857 6.60251289662 3.66238 0.335242 1.74595 3.66405 0.223481 1.76374 3.67012 -0.0384848 1.77742 3.6658 0.242664 1.7612 -9.32373 -0.036381 -7.09862 -9.18188 4.8137 -6.97688 -0.0 0.0 -0.0 1.68154 4.6304 3.64321 1.51114 -15.9248 57.0149 2.69298 -53.1349 1.34682 5.46313 0.160197 -0.679181 0.0105064 -0.40768 -0.101681 -0.0 0.0 -0.0 8.50266 3.98967 -16.6564 -33.367 22.76 -64.8507 0.426866 11.9399 -0.0446394 49.0041 0.898442 6.007 0.325165 -6.10211 -4.67693 0.0 0.0 0.0 5.4472 45.469 -5.9874 -16.1466 0.321618 2.44881 -19.086 -29.6208 3.65707 -5.40215 0.0 0.0 -0.0 0.0 -0.0 43.7246 -8.02778 -1.31886 -10.4575 -0.287327 -1.57694 1.6223 24.5365 0.281568 1.72137 -0.0 -0.0 0.0 0.0 0.0 
1357.62779146 700.845 -1495.11362714 -12.846007885 30.2364991271 6.37945866226 3.4651 0.41696 1.68444 3.46663 0.308946 1.70755 3.4752 0.0484566 1.73459 3.47115 0.321754 1.70518 -11.316 0.276481 -4.47589 -11.2636 3.45662 -4.25019 -0.0 0.0 -0.0 1.4476 5.52159 3.29225 0.253152 -16.2745 57.0254 2.56093 -51.744 1.24213 8.48589 0.220789 -1.06051 0.582969 -0.040051 3.87966 -0.0 0.0 -0.0 8.82501 5.37112 -17.3345 -32.6067 23.2958 -64.8458 0.420634 11.7705 -0.043359 50.8886 1.03316 6.20718 -0.0446453 -8.12691 -3.09035 0.0 0.0 0.0 4.57332 44.1756 -6.40137 -18.4956 0.310508 2.80902 -19.6036 -29.6016 3.7557 -4.77867 0.0 0.0 -0.0 0.0 -0.0 43.3564 -8.37506 -1.7393 -12.7785 -0.311773 -1.93221 3.06676 28.8032 0.558144 4.34713 -0.0 -0.0 0.0 0.0 0.0 
1337.31023985 699.642 -1513.38810533 -12.2085655558 30.2634784349 5.17247085442 3.45638 0.426933 1.74639 3.45802 0.314959 1.77001 3.46708 0.0447483 1.79724 3.46272 0.327983 1.76764 -9.57969 -0.666435 -6.48618 -9.46093 3.18217 -6.51132 -0.0 0.0 -0.0 1.25431 7.0139 3.07739 -1.75893 -17.5265 58.3503 2.2935 -48.6396 1.03662 8.244 0.216683 -1.02989 0.91815 -0.944296 5.75731 -0.0 0.0 -0.0 9.12703 5.15343 -17.9703 -31.695 23.6603 -63.8612 0.36306 10.1958 -0.032389 53.2912 1.21437 6.45585 -0.39136 -9.73949 -1.52372 0.0 0.0 0.0 2.63312 42.7479 -4.37902 -21.7144 0.271329 3.30128 -16.6482 -29.5926 3.18526 -2.81111 0.0 0.0 -0.0 0.0 -0.0 41.61 -8.91031 -0.940782 -13.3676 -0.315686 -2.0225 1.12158 28.7406 0.205245 9.96792 -0.0 -0.0 0.0 0.0 0.0 
1337.77553144 699.642 -1513.80647438 -12.1242994965 29.5844266456 5.00355331093 3.45638 0.426933 1.74639 3.45802 0.314959 1.77001 3.46708 0.0447483 1.79724 3.46272 0.327983 1.76764 -9.57969 -0.666435 -6.48618 -9.46093 3.18217 -6.51132 -0.0 0.0 -0.0 1.25431 7.0139 3.07739 -1.75893 -17.5265 58.3503 2.2935 -48.6396 1.03662 8.244 0.216683 -1.02989 0.91815 -0.944296 5.75731 -0.0 0.0 -0.0 9.12703 5.15343 -17.9703 -31.695 23.6603 -63.8612 0.36306 10.1958 -0.032389 53.2912 1.21437 6.45585 -0.39136 -9.73949 -1.52372 0.0 0.0 0.0 2.63312 42.7479 -4.37902 -21.7144 0.271329 3.30128 -16.6482 -29.5926 3.18526 -2.81111 0.0 0.0 -0.0 0.0 -0.0 41.61 -8.91031 -0.940782 -13.3676 -0.315686 -2.0225 1.12158 28.7406 0.205245 9.96792 -0.0 -0.0 0.0 0.0 0.0 
1298.75949835 700.139 -1544.24445123 -11.9089463944 32.1764184983 4.35438489525 3.44465 0.298511 2.04053 3.44695 0.16809 2.05538 3.452 -0.144074 2.0572 3.44614 0.18256 2.05415 -8.73185 -1.18208 -8.38355 -8.53096 3.63502 -8.53834 -0.0 0.0 -0.0 1.23514 9.09 3.2312 -3.68424 -19.0154 60.1885 1.84863 -42.4779 0.718534 4.94616 0.147823 -0.614302 0.117879 4.48339 2.65325 -0.0 0.0 -0.0 9.36166 6.56397 -18.4733 -30.1638 23.7137 -63.235 0.395605 11.088 -0.0383993 58.2278 1.61872 6.94206 -0.299404 -12.2684 -3.1605 0.0 0.0 0.0 0.360748 40.1816 -2.58746 -22.3149 0.260962 3.39284 -13.589 -28.3733 2.55101 -2.44431 0.0 0.0 -0.0 0.0 -0.0 40.5889 -9.1637 0.840613 -15.4761 -0.32208 -2.34593 -15.424 28.7153 -2.91357 20.0771 -0.0 -0.0 0.0 0.0 0.0 
1299.92570968 700.139 -1545.46214722 -11.7872321228 31.2372987166 4.12280916746 3.44465 0.298511 2.04053 3.44695 0.16809 2.05538 3.452 -0.144074 2.0572 3.44614 0.18256 2.05415 -8.73185 -1.18208 -8.38355 -8.53096 3.63502 -8.53834 -0.0 0.0 -0.0 1.23514 9.09 3.2312 -3.68424 -19.0154 60.1885 1.84863 -42.4779 0.718534 4.94616 0.147823 -0.614302 0.117879 4.48339 2.65325 -0.0 0.0 -0.0 9.36166 6.56397 -18.4733 -30.1638 23.7137 -63.235 0.395605 11.088 -0.0383993 58.2278 1.61872 6.94206 -0.299404 -12.2684 -3.1605 0.0 0.0 0.0 0.360748 40.1816 -2.58746 -22.3149 0.260962 3.39284 -13.589 -28.3733 2.55101 -2.44431 0.0 0.0 -0.0 0.0 -0.0 40.5889 -9.1637 0.840613 -15.4761 -0.32208 -2.34593 -15.424 28.7153 -2.91357 20.0771 -0.0 -0.0 0.0 0.0 0.0 
1268.02780836 714.613 -1580.17458754 -11.5108998656 32.7805217028 4.29727450262 3.35961 0.531965 2.33318 3.36256 0.382463 2.36228 3.37718 0.018547 2.39296 3.36941 0.39613 2.36003 -10.3204 -3.26836 -13.4553 -9.81038 2.92261 -13.9345 -0.0 0.0 -0.0 2.08643 11.0655 4.85338 -7.95813 -19.5824 59.3822 1.43108 -35.3314 0.455794 5.39603 0.158624 -0.670753 0.415968 0.218625 2.86955 -0.0 0.0 -0.0 9.81781 5.00665 -19.4331 -27.3057 22.2779 -62.7684 0.45017 12.5715 -0.0495864 61.661 1.92402 7.259 -0.389848 -12.6487 -2.74652 0.0 0.0 0.0 7.81025 34.4427 -8.50266 -36.9247 -0.282799 5.56293 2.25985 -25.2046 -0.394438 4.66786 -0.0 -0.0 -0.0 0.0 -0.0 38.657 -9.5061 1.59444 -17.0969 -0.318903 -2.59458 -20.4584 29.0128 -3.88859 21.6381 -0.0 -0.0 0.0 0.0 0.0 
1271.2820761 714.613 -1583.30287243 -11.2952927988 31.0647490328 3.88957221372 3.35961 0.531965 2.33318 3.36256 0.382463 2.36228 3.37718 0.018547 2.39296 3.36941 0.39613 2.36003 -10.3204 -3.26836 -13.4553 -9.81038 2.92261 -13.9345 -0.0 0.0 -0.0 2.08643 11.0655 4.85338 -7.95813 -19.5824 59.3822 1.43108 -35.3314 0.455794 5.39603 0.158624 -0.670753 0.415968 0.218625 2.86955 -0.0 0.0 -0.0 9.81781 5.00665 -19.4331 -27.3057 22.2779 -62.7684 0.45017 12.5715 -0.0495864 61.661 1.92402 7.259 -0.389848 -12.6487 -2.74652 0.0 0.0 0.0 7.81025 34.4427 -8.50266 -36.9247 -0.282799 5.56293 2.25985 -25.2046 -0.394438 4.66786 -0.0 -0.0 -0.0 0.0 -0.0 38.657 -9.5061 1.59444 -17.0969 -0.318903 -2.59458 -20.4584 29.0128 -3.88859 21.6381 -0.0 -0.0 0.0 0.0 0.0 
1259.71716066 718.305 -1602.19039067 -10.6369542673 29.3935524018 3.39985242354 3.31627 0.616456 2.45453 3.3195 0.459068 2.48875 3.33825 0.0733646 2.52965 3.32963 0.47183 2.48636 -12.2513 -2.02925 -11.8504 -11.8613 3.76266 -11.9676 -0.0 0.0 -0.0 2.04637 12.1954 4.86183 -9.99321 -20.0395 59.6135 1.27146 -32.203 0.367038 4.84532 0.145341 -0.601659 0.169586 1.86042 1.90881 -0.0 0.0 -0.0 9.72874 6.32628 -19.2574 -26.9079 23.014 -62.3514 0.551932 15.2917 -0.0740939 63.3857 2.08445 7.41123 -0.28255 -15.3638 -4.52971 0.0 0.0 0.0 11.5579 29.5095 -9.3732 -44.3822 -0.768835 6.60057 4.76066 -21.8346 -0.794609 6.45775 -0.0 -0.0 -0.0 0.0 -0.0 37.1571 -10.109 0.824689 -17.5573 -0.316718 -2.66518 -19.8259 28.2417 -3.72956 21.1028 -0.0 -0.0 0.0 0.0 0.0 
1250.54726783 722.411 -1618.78502638 -9.95575757302 30.1553742262 3.17801474315 3.37901 0.571864 2.56005 3.38256 0.407858 2.59122 3.3996 0.009851 2.62309 3.39025 0.423854 2.58866 -13.1827 -2.56652 -13.929 -12.6454 3.86103 -14.0823 -0.0 0.0 -0.0 2.33642 13.0876 5.40069 -11.4412 -20.1073 59.2312 1.12691 -29.1709 0.293241 3.86844 0.120145 -0.479417 -0.184248 3.31922 0.174471 -0.0 0.0 -0.0 8.49824 5.58282 -16.6473 -21.0347 24.9581 -65.4038 0.627464 17.2668 -0.0952699 64.5896 2.19912 7.51462 -1.04772 -15.6914 0.0556546 0.0 0.0 0.0 14.7647 27.6659 -9.66697 -47.3931 -1.00279 7.00044 13.6581 -21.7544 -2.19771 7.68159 -0.0 -0.0 -0.0 0.0 -0.0 35.2709 -10.1769 1.23288 -18.1839 -0.312833 -2.76124 -16.9157 27.9274 -3.16555 20.1367 -0.0 -0.0 0.0 0.0 0.0 
1233.55603515 734.194 -1650.370485 -8.76468498347 30.8519402548 1.72411707596 2.91799 0.567048 2.83704 2.92239 0.385447 2.86734 2.94051 -0.077451 2.89208 2.92904 0.380079 2.86806 -14.077 -1.41991 -13.5606 -13.5818 5.59689 -13.3546 -0.0 0.0 -0.0 2.69354 13.9205 6.03289 -14.2177 -19.7208 58.9068 0.784595 -21.2393 0.147114 2.46665 0.0803552 -0.304781 -0.78799 5.65576 -2.79741 -0.0 0.0 -0.0 8.1649 6.40977 -15.9406 -12.2329 24.6795 -67.732 0.67063 18.3771 -0.108482 68.4497 2.5811 7.82959 -1.58303 -18.8664 1.87604 0.0 0.0 0.0 17.5859 18.558 -6.10743 -49.9465 -1.21751 7.32969 19.7167 -19.846 -3.0237 9.47374 -0.0 -0.0 -0.0 0.0 -0.0 28.6661 -6.78128 0.0977892 -11.69 -0.3021 -1.76547 -15.824 25.0708 -2.85664 18.4189 -0.0 -0.0 0.0 0.0 0.0 
1242.72587874 734.194 -1657.24621338 -8.5156728946 27.9440209062 1.21699882111 2.91799 0.567048 2.83704 2.92239 0.385447 2.86734 2.94051 -0.077451 2.89208 2.92904 0.380079 2.86806 -14.077 -1.41991 -13.5606 -13.5818 5.59689 -13.3546 -0.0 0.0 -0.0 2.69354 13.9205 6.03289 -14.2177 -19.7208 58.9068 0.784595 -21.2393 0.147114 2.46665 0.0803552 -0.304781 -0.78799 5.65576 -2.79741 -0.0 0.0 -0.0 8.1649 6.40977 -15.9406 -12.2329 24.6795 -67.732 0.67063 18.3771 -0.108482 68.4497 2.5811 7.82959 -1.58303 -18.8664 1.87604 0.0 0.0 0.0 17.5859 18.558 -6.10743 -49.9465 -1.21751 7.32969 19.7167 -19.846 -3.0237 9.47374 -0.0 -0.0 -0.0 0.0 -0.0 28.6661 -6.78128 0.0977892 -11.69 -0.3021 -1.76547 -15.824 25.0708 -2.85664 18.4189 -0.0 -0.0 0.0 0.0 0.0 
1233.18898122 741.024 -1676.60782581 -8.72683231322 28.1192516784 1.4747035838 2.76523 0.566236 2.85775 2.76969 0.38332 2.88795 2.78802 -0.0906033 2.91185 2.77638 0.370211 2.88966 -14.8682 -0.757818 -13.6736 -14.3798 6.7419 -13.2186 -0.0 0.0 -0.0 2.96278 14.6084 6.50196 -15.1205 -20.1209 58.8781 0.562871 -15.5802 0.0770053 2.82617 0.0909675 -0.349478 -0.743182 5.71547 -2.47779 -0.0 0.0 -0.0 7.38751 5.69934 -14.3285 -11.5423 25.6321 -69.2977 0.887472 23.7314 -0.186468 70.1293 2.7538 7.95851 -1.87015 -18.6202 3.71783 0.0 0.0 0.0 18.4526 15.4717 -4.48913 -50.5921 -1.27413 7.41143 22.2187 -15.2905 -3.24146 10.6614 -0.0 -0.0 -0.0 0.0 -0.0 26.3595 -5.77539 -0.238251 -9.32723 -0.270216 -1.40436 -14.9751 25.6674 -2.72071 18.0224 -0.0 -0.0 0.0 0.0 0.0 
